<svg id="Layer_1" data-name="Layer 1" xmlns="http://www.w3.org/2000/svg" viewBox="0 0 128 128"><defs><style>.cls-1{fill-rule:evenodd;}</style></defs><path class="cls-1" d="M39.55,11.41a33.1,33.1,0,0,0-6.62,1.77L28,4.65a1.55,1.55,0,0,0-2.12-.57L19.12,8a1.57,1.57,0,0,0-.57,2.13l4.93,8.53a34.59,34.59,0,0,0-4.84,4.84L10.1,18.55A1.56,1.56,0,0,0,8,19.12l-3.9,6.76A1.55,1.55,0,0,0,4.65,28l8.52,4.93a33.78,33.78,0,0,0-1.77,6.62H1.56A1.56,1.56,0,0,0,0,41.1v7.8a1.57,1.57,0,0,0,1.56,1.56H11.4a34.16,34.16,0,0,0,1.77,6.62L4.65,62a1.55,1.55,0,0,0-.57,2.12L8,70.88a1.56,1.56,0,0,0,2.12.57l8.54-4.93a34.59,34.59,0,0,0,4.84,4.84L18.55,79.9A1.56,1.56,0,0,0,19.12,82l6.76,3.9A1.55,1.55,0,0,0,28,85.35l4.92-8.53a32.71,32.71,0,0,0,6.63,1.77v9.85A1.56,1.56,0,0,0,41.1,90h7.8a1.56,1.56,0,0,0,1.55-1.56V78.59a32.44,32.44,0,0,0,6.62-1.77L62,85.35a1.55,1.55,0,0,0,2.12.57L70.88,82a1.56,1.56,0,0,0,.57-2.12l-4.93-8.54a34.59,34.59,0,0,0,4.84-4.84l8.54,4.93A1.56,1.56,0,0,0,82,70.88l3.9-6.76A1.55,1.55,0,0,0,85.35,62l-8.53-4.92a33.48,33.48,0,0,0,1.78-6.62h9.84A1.56,1.56,0,0,0,90,48.9V41.1a1.56,1.56,0,0,0-1.56-1.55H78.6a33.39,33.39,0,0,0-1.78-6.63L85.35,28a1.55,1.55,0,0,0,.57-2.12L82,19.12a1.56,1.56,0,0,0-2.12-.57l-8.54,4.93a34.59,34.59,0,0,0-4.84-4.84l4.93-8.54A1.56,1.56,0,0,0,70.88,8l-6.76-3.9A1.55,1.55,0,0,0,62,4.65l-4.93,8.53a33.1,33.1,0,0,0-6.62-1.77V1.56A1.56,1.56,0,0,0,48.9,0H41.1a1.56,1.56,0,0,0-1.55,1.56v9.85ZM45,25A20,20,0,1,1,25,45,20,20,0,0,1,45,25Z"/><path class="cls-1" d="M94.36,75.6A23.3,23.3,0,0,0,90,76.78L86.67,71.1a1,1,0,0,0-1.42-.38l-4.5,2.6a1,1,0,0,0-.38,1.42l3.28,5.69a22.86,22.86,0,0,0-3.23,3.22l-5.68-3.28a1,1,0,0,0-1.42.38l-2.6,4.5a1,1,0,0,0,.38,1.42L76.78,90a23.3,23.3,0,0,0-1.18,4.41H69a1,1,0,0,0-1,1v5.2a1,1,0,0,0,1,1H75.6a23.3,23.3,0,0,0,1.18,4.41l-5.68,3.28a1,1,0,0,0-.38,1.42l2.6,4.5a1,1,0,0,0,1.42.38l5.68-3.28a22.86,22.86,0,0,0,3.23,3.22l-3.28,5.69a1,1,0,0,0,.38,1.42l4.5,2.6a1,1,0,0,0,1.42-.38L90,119.22a23.3,23.3,0,0,0,4.41,1.18V127a1,1,0,0,0,1,1h5.2a1,1,0,0,0,1-1V120.4a23.3,23.3,0,0,0,4.41-1.18l3.28,5.68a1,1,0,0,0,1.42.38l4.5-2.6a1,1,0,0,0,.38-1.42l-3.28-5.69a22.28,22.28,0,0,0,3.22-3.22l5.69,3.28a1,1,0,0,0,1.42-.38l2.6-4.5a1,1,0,0,0-.38-1.42l-5.68-3.28a23.3,23.3,0,0,0,1.18-4.41H127a1,1,0,0,0,1-1V95.4a1,1,0,0,0-1-1H120.4A23.3,23.3,0,0,0,119.22,90l5.68-3.28a1,1,0,0,0,.38-1.42l-2.6-4.5a1,1,0,0,0-1.42-.38l-5.69,3.28a22.28,22.28,0,0,0-3.22-3.22l3.28-5.69a1,1,0,0,0-.38-1.42l-4.5-2.6a1,1,0,0,0-1.42.38l-3.28,5.68a23.3,23.3,0,0,0-4.41-1.18V69a1,1,0,0,0-1-1H95.4a1,1,0,0,0-1,1V75.6ZM98,84.67A13.33,13.33,0,1,1,84.67,98,13.33,13.33,0,0,1,98,84.67Z"/><path d="M22.52,117.61a6.46,6.46,0,0,1-.27,1.92,5.49,5.49,0,0,1-1.89,2.81,6.6,6.6,0,0,1-1.53.89,8.47,8.47,0,0,1-1.81.54,12.12,12.12,0,0,1-2.21.18H9a1.24,1.24,0,0,1-.74-.26,1.12,1.12,0,0,1-.35-.94V103a1.12,1.12,0,0,1,.35-.93,1.17,1.17,0,0,1,.74-.26h5a11.64,11.64,0,0,1,3.24.37,5.76,5.76,0,0,1,2.12,1.1,4.51,4.51,0,0,1,1.27,1.76,6.42,6.42,0,0,1,.24,3.86,4.86,4.86,0,0,1-.56,1.32,4.34,4.34,0,0,1-.92,1.09,4.82,4.82,0,0,1-1.27.78,5.65,5.65,0,0,1,1.69.63,5,5,0,0,1,1.37,1.15,5.4,5.4,0,0,1,.94,1.64A6.24,6.24,0,0,1,22.52,117.61Zm-4.43-9.9a4.46,4.46,0,0,0-.22-1.45,2.7,2.7,0,0,0-.7-1.1,3.16,3.16,0,0,0-1.24-.69,7,7,0,0,0-2-.24h-3v7.16H14.2a4.71,4.71,0,0,0,1.84-.3,3.29,3.29,0,0,0,1.16-.8,3.1,3.1,0,0,0,.68-1.18A4.7,4.7,0,0,0,18.09,107.71Zm1.33,10.07a4.47,4.47,0,0,0-.31-1.74,3.36,3.36,0,0,0-.92-1.27,4,4,0,0,0-1.52-.77,8.21,8.21,0,0,0-2.29-.27H10.86v7.79h4.27a5.74,5.74,0,0,0,1.75-.24,4,4,0,0,0,1.32-.7,3.41,3.41,0,0,0,.9-1.18A3.72,3.72,0,0,0,19.42,117.78Z"/><path d="M43.2,122.91a2.26,2.26,0,0,1,.14.6.39.39,0,0,1-.13.35.79.79,0,0,1-.45.16c-.21,0-.49,0-.85,0l-.84,0a2.05,2.05,0,0,1-.48-.09.48.48,0,0,1-.24-.16,1,1,0,0,1-.14-.26l-1.9-5.38h-9.2l-1.81,5.31a.85.85,0,0,1-.13.27.72.72,0,0,1-.25.19,1.47,1.47,0,0,1-.46.11q-.3,0-.78,0a6,6,0,0,1-.81,0,.87.87,0,0,1-.45-.16.48.48,0,0,1-.12-.35,2.31,2.31,0,0,1,.15-.61l7.42-20.54A.83.83,0,0,1,32,102a.87.87,0,0,1,.33-.19,3,3,0,0,1,.55-.09q.33,0,.84,0c.37,0,.67,0,.91,0a3.39,3.39,0,0,1,.58.09.75.75,0,0,1,.34.2.91.91,0,0,1,.19.32Zm-9.52-18.13h0l-3.81,11h7.69Z"/><path d="M58,103.1a4.39,4.39,0,0,1,0,.56,1.21,1.21,0,0,1-.11.39.49.49,0,0,1-.19.21.45.45,0,0,1-.25.07H51.21v19.18a.4.4,0,0,1-.07.24.46.46,0,0,1-.24.16,2.58,2.58,0,0,1-.45.1A6.23,6.23,0,0,1,49,124a2.72,2.72,0,0,1-.46-.1.5.5,0,0,1-.24-.16.4.4,0,0,1-.07-.24V104.33H42.05a.45.45,0,0,1-.25-.07.48.48,0,0,1-.18-.21,2.1,2.1,0,0,1-.11-.39,3,3,0,0,1,0-.56,3.18,3.18,0,0,1,0-.57,2,2,0,0,1,.11-.4.42.42,0,0,1,.43-.29H57.43a.54.54,0,0,1,.25.06.56.56,0,0,1,.19.23,1.2,1.2,0,0,1,.11.4A4.67,4.67,0,0,1,58,103.1Z"/></svg>