<?xml version="1.0" encoding="utf-8"?>
<!-- Generator: Adobe Illustrator 23.0.1, SVG Export Plug-In . SVG Version: 6.00 Build 0)  -->
<svg version="1.1" xmlns="http://www.w3.org/2000/svg" xmlns:xlink="http://www.w3.org/1999/xlink" x="0px" y="0px"
	 viewBox="0 0 128 128" style="enable-background:new 0 0 128 128;" xml:space="preserve">
<style type="text/css">
	.st0{fill:url(#path1948_1_);}
	.st1{fill:url(#path1950_1_);}
</style>
<g id="Square_Background">
</g>
<g id="Proget_Icon">
</g>
<g id="Nuget_Icon">
</g>
<g id="Layer_1">
</g>
<g id="square_background">
</g>
<g id="updated">
</g>
<g id="Choc_Icon">
	<g id="g2303">
		
			<linearGradient id="path1948_1_" gradientUnits="userSpaceOnUse" x1="158.1405" y1="9.8939" x2="280.3593" y2="-95.259" gradientTransform="matrix(0.5625 0 0 -0.568 -90.3297 10.2073)">
			<stop  offset="0" style="stop-color:#5C9FD3"/>
			<stop  offset="1" style="stop-color:#316A99"/>
		</linearGradient>
		<path id="path1948" class="st0" d="M63.3,1c-5.1,0-10,0.5-14.4,1.2c-12.7,2.2-15,7-15,15.6v11.5h30.1v3.8H33.9H22.6
			c-8.7,0-16.4,5.3-18.8,15.2C1,59.8,0.9,67,3.8,78.9c2.1,8.9,7.2,15.2,16,15.2h10.3V80.4c0-9.9,8.6-18.7,18.8-18.7h30
			c8.4,0,15-6.9,15-15.3V17.9c0-8.1-6.9-14.3-15-15.6C73.8,1.4,68.4,1,63.3,1z M47,10.2c3.1,0,5.6,2.6,5.6,5.7
			c0,3.2-2.5,5.7-5.6,5.7c-3.1,0-5.6-2.6-5.6-5.7C41.4,12.8,43.9,10.2,47,10.2z"/>
		
			<linearGradient id="path1950_1_" gradientUnits="userSpaceOnUse" x1="327.61" y1="-158.902" x2="283.9657" y2="-97.1528" gradientTransform="matrix(0.5625 0 0 -0.568 -90.3297 10.2073)">
			<stop  offset="0" style="stop-color:#FFD53D"/>
			<stop  offset="1" style="stop-color:#FEE875"/>
		</linearGradient>
		<path id="path1950" class="st1" d="M97.7,33.1v13.3c0,10.3-8.8,19.1-18.8,19.1h-30c-8.2,0-15,7-15,15.3v28.6
			c0,8.1,7.1,12.9,15,15.3c9.5,2.8,18.6,3.3,30,0c7.6-2.2,15-6.6,15-15.3V98h-30v-3.8h30h15c8.7,0,12-6.1,15-15.2
			c3.1-9.4,3-18.5,0-30.6c-2.2-8.7-6.3-15.2-15-15.2H97.7z M80.8,105.6c3.1,0,5.6,2.6,5.6,5.7c0,3.2-2.5,5.7-5.6,5.7
			c-3.1,0-5.6-2.6-5.6-5.7C75.2,108.2,77.7,105.6,80.8,105.6z"/>
	</g>
</g>
</svg>
