<svg id="Layer_1" data-name="Layer 1" xmlns="http://www.w3.org/2000/svg" viewBox="0 0 128 128"><defs><style>.cls-1{fill:#3e474a;}.cls-2{fill:#fff;}.cls-3{fill:#47b353;}</style></defs><rect class="cls-1" width="128" height="128" rx="11"/><path class="cls-2" d="M35.62,48.52c0,13,30.71,8.82,30.71,30.06,0,9.9-7,16.83-18.88,17.64l-.1,4.23c-.11,2.7-.42,3.33-3.53,3.33h-1c-3.11,0-3.32-.63-3.22-3.33l.21-4.32C32.4,95.32,27.53,92.8,24.62,90c-1.86-1.53-1.76-3.15.11-4.68l1.86-1.53a4.36,4.36,0,0,1,2.81-1.26,4.84,4.84,0,0,1,3,1.26,18.42,18.42,0,0,0,12.25,4.14c6.43,0,11-3.51,11-9.27,0-14.22-30.72-8.28-30.72-30.06,0-9.54,6.23-15.75,17.54-16.74l.1-4.23c.21-2.7.52-3.42,3.64-3.42h1c3.12,0,3.22.72,3.12,3.42L50.15,32A25.79,25.79,0,0,1,62.7,37.18c.94.63,2.8,1.8-.2,4.41l-2,1.62c-2.69,2.25-4.35.9-5.29.36a13.68,13.68,0,0,0-8.82-3.15C39.36,40.42,35.62,43.3,35.62,48.52Z"/><path class="cls-3" d="M76.85,103.65c-3.11,0-3.83-.72-3.83-3.42V98c0-2.7.72-3.42,3.83-3.42h23.93c3.22,0,4,.72,4,3.42v2.25c0,2.7-.73,3.42-4,3.42Z"/></svg>