<?xml version="1.0" encoding="utf-8"?>
<!-- Generator: Adobe Illustrator 19.2.1, SVG Export Plug-In . SVG Version: 6.00 Build 0)  -->
<svg version="1.1" xmlns="http://www.w3.org/2000/svg" xmlns:xlink="http://www.w3.org/1999/xlink" x="0px" y="0px"
	 viewBox="0 0 128 128" style="enable-background:new 0 0 128 128;" xml:space="preserve">
<style type="text/css">
	.st0{fill:#FDFDFE;}
	.st1{fill:#317DC1;}
</style>
<g id="Square_Background">
</g>
<g id="Proget_Icon">
</g>
<g id="Nuget_Icon">
</g>
<g id="Layer_1">
</g>
<g id="square_background">
</g>
<g id="updated">
</g>
<g id="Choc_Icon">
	<g>
		<g>
			<path class="st0" d="M128,21.2c-0.1-2.7-1.4-4.3-4.3-4.5c-0.4,0-0.9-0.1-1.2-0.4c-32,0-64,0-95.9,0c-5.5,0.5-7.8,4-8.8,9
				c-0.4,2-0.9,3.9-1.3,5.9C11.5,55.2,4.7,79,1,103.4c0,1,0,2.1,0,3.1c0.4,3.2,2.4,4.8,5.5,5.1c0.1,0,0.1,0.1,0.2,0.1
				c32,0,64,0,95.9,0c5.1-0.7,7.5-4.1,8.6-8.7c4.1-18,8.1-36,12.1-54c1.9-8.3,4.2-16.6,4.5-25.3C128,22.9,128,22,128,21.2z"/>
		</g>
	</g>
	<g>
		<g>
			<path class="st1" d="M128,21.2c-0.1-2.7-1.4-4.3-4.3-4.5c-0.4,0-0.9-0.1-1.2-0.4c-32,0-64,0-95.9,0c-5.5,0.5-7.8,4-8.8,9
				c-0.4,2-0.9,3.9-1.3,5.9C11.5,55.2,4.7,79,1,103.4c0,1,0,2.1,0,3.1c0.4,3.2,2.4,4.8,5.5,5.1c0.1,0,0.1,0.1,0.2,0.1
				c32,0,64,0,95.9,0c5.1-0.7,7.5-4.1,8.6-8.7c4.1-18,8.1-36,12.1-54c1.9-8.3,4.2-16.6,4.5-25.3C128,22.9,128,22,128,21.2z
				 M29.7,101.2c-2-1.3-2.6-3.2-2.1-5.4c0.3-1.7,1.6-2.6,2.8-3.6c12-8.7,24-17.5,36.1-26.1c1.8-1.3,1.9-2,0.4-3.6
				c-7.7-8.1-15.4-16.3-23-24.5c-2.9-3.1-2.6-7,0.6-9.5c1.1-0.9,2.4-1.4,3.9-1.3c1.8-0.1,3.2,0.6,4.4,1.9
				c9.5,10.1,19.1,20.2,28.6,30.4c3.2,3.5,2.8,6.4-1,9.2c-14.7,10.7-29.4,21.3-44.1,32C34.1,102.2,32,102.7,29.7,101.2z M83.3,100.6
				c-7.4,0.1-14.9,0.1-22.3,0c-3.4,0-5.5-2.3-5.4-5.4c0.1-2.9,2.3-4.9,5.6-4.9c3.7-0.1,7.4,0,11.2,0c3.6,0,7.3,0,10.9,0
				c3.3,0.1,5.8,2.3,5.8,5.1C89,98.3,86.7,100.6,83.3,100.6z"/>
		</g>
	</g>
</g>
</svg>
